<svg width="24" height="24" viewBox="0 0 24 24" fill="none" xmlns="http://www.w3.org/2000/svg">
<path fill-rule="evenodd" clip-rule="evenodd" d="M12 0C18.6537 0 24 5.37607 24 12C24 18.6537 18.6537 24 12 24C5.3766 24 0 18.6537 0 12C0 5.3766 5.37607 0 12 0ZM16.9901 5.96999L12 10.9304L7.03962 5.96999C6.32681 5.25718 5.2575 6.32649 5.9703 7.0393L10.9307 11.9997L5.9703 16.9898C5.2575 17.7026 6.32681 18.7422 7.03962 18.0591L12 13.069L16.9901 18.0591C17.7029 18.7422 18.7425 17.7026 18.0594 16.9898L13.0693 11.9997L18.0594 7.0393C18.7425 6.3265 17.6732 5.25718 16.9901 5.96999Z" fill="#B3B3B3"/>
</svg>
