<svg width="16" height="20" viewBox="0 0 16 20" fill="none" xmlns="http://www.w3.org/2000/svg">
<path d="M10.8685 3.49512H1.57954C0.707927 3.49512 0 4.20304 0 5.07465V18.4025C0 19.2741 0.707927 19.982 1.57954 19.982H10.8685C11.7401 19.982 12.4481 19.2741 12.4481 18.4025V5.07465C12.444 4.20304 11.736 3.49512 10.8685 3.49512ZM11.3391 18.3984C11.3391 18.6603 11.1263 18.8731 10.8644 18.8731H1.57544C1.31355 18.8731 1.10076 18.6603 1.10076 18.3984V5.07465C1.10076 4.81276 1.31355 4.59997 1.57544 4.59997H10.8644C11.1263 4.59997 11.3391 4.81276 11.3391 5.07465V18.3984Z" fill="#383838"/>
<path d="M14.4208 0H5.13178C4.26017 0 3.55225 0.707927 3.55225 1.57954C3.55225 1.88644 3.79777 2.13196 4.10467 2.13196C4.41158 2.13196 4.6571 1.88644 4.6571 1.57954C4.6571 1.31764 4.86989 1.10486 5.13178 1.10486H14.4208C14.6827 1.10486 14.8954 1.31764 14.8954 1.57954V14.9074C14.8954 15.1693 14.6827 15.3821 14.4208 15.3821C14.1139 15.3821 13.8683 15.6276 13.8683 15.9345C13.8683 16.2414 14.1139 16.4869 14.4208 16.4869C15.2924 16.4869 16.0003 15.779 16.0003 14.9074V1.57954C16.0003 0.707927 15.2924 0 14.4208 0Z" fill="#383838"/>
</svg>
