<svg width="102" height="22" viewBox="0 0 102 22" fill="none" xmlns="http://www.w3.org/2000/svg">
<path d="M21.5852 18V4.90909H29.4858V6.31534H23.1705V10.7386H29.0767V12.1449H23.1705V16.5938H29.5881V18H21.5852ZM36.4084 8.18182V9.46023H31.3203V8.18182H36.4084ZM32.8033 5.82955H34.3118V15.1875C34.3118 15.6136 34.3736 15.9332 34.4972 16.1463C34.625 16.3551 34.7869 16.4957 34.983 16.5682C35.1832 16.6364 35.3942 16.6705 35.6158 16.6705C35.782 16.6705 35.9183 16.6619 36.0249 16.6449C36.1314 16.6236 36.2166 16.6065 36.2805 16.5938L36.5874 17.9489C36.4851 17.9872 36.3423 18.0256 36.1591 18.0639C35.9759 18.1065 35.7436 18.1278 35.4624 18.1278C35.0362 18.1278 34.6186 18.0362 34.2095 17.853C33.8047 17.6697 33.468 17.3906 33.1996 17.0156C32.9354 16.6406 32.8033 16.1676 32.8033 15.5966V5.82955ZM40.397 12.0938V18H38.8885V4.90909H40.397V9.71591H40.5249C40.755 9.20881 41.1001 8.80611 41.5604 8.50781C42.0249 8.20526 42.6428 8.05398 43.4141 8.05398C44.0831 8.05398 44.669 8.18821 45.1719 8.45668C45.6747 8.72088 46.0646 9.12784 46.3416 9.67756C46.6229 10.223 46.7635 10.9176 46.7635 11.7614V18H45.255V11.8636C45.255 11.0838 45.0526 10.4808 44.6477 10.0547C44.2472 9.62429 43.6911 9.40909 42.9794 9.40909C42.4851 9.40909 42.0419 9.51349 41.6499 9.7223C41.2621 9.93111 40.9553 10.2358 40.7294 10.6364C40.5078 11.0369 40.397 11.5227 40.397 12.0938ZM53.6397 18.2045C52.6937 18.2045 51.8777 17.9957 51.1916 17.5781C50.5098 17.1562 49.9835 16.5682 49.6127 15.8139C49.2463 15.0554 49.063 14.1733 49.063 13.1676C49.063 12.1619 49.2463 11.2756 49.6127 10.5085C49.9835 9.73722 50.4991 9.13636 51.1596 8.70597C51.8244 8.27131 52.6 8.05398 53.4863 8.05398C53.9977 8.05398 54.5027 8.1392 55.0012 8.30966C55.4998 8.48011 55.9537 8.7571 56.3627 9.14062C56.7718 9.51989 57.0978 10.0227 57.3407 10.6491C57.5836 11.2756 57.7051 12.0469 57.7051 12.9631V13.6023H50.1369V12.2983H56.171C56.171 11.7443 56.0602 11.25 55.8386 10.8153C55.6213 10.3807 55.3102 10.0376 54.9054 9.78622C54.5048 9.5348 54.0318 9.40909 53.4863 9.40909C52.8855 9.40909 52.3656 9.55824 51.9267 9.85653C51.492 10.1506 51.1575 10.5341 50.9231 11.0071C50.6887 11.4801 50.5716 11.9872 50.5716 12.5284V13.3977C50.5716 14.1392 50.6994 14.7678 50.9551 15.2834C51.215 15.7947 51.5751 16.1847 52.0353 16.4531C52.4956 16.7173 53.0304 16.8494 53.6397 16.8494C54.036 16.8494 54.394 16.794 54.7136 16.6832C55.0375 16.5682 55.3166 16.3977 55.551 16.1719C55.7853 15.9418 55.9664 15.6562 56.0943 15.3153L57.5517 15.7244C57.3983 16.2188 57.1404 16.6534 56.7782 17.0284C56.416 17.3991 55.9686 17.6889 55.4359 17.8977C54.9032 18.1023 54.3045 18.2045 53.6397 18.2045ZM59.9998 18V8.18182H61.4572V9.66477H61.5595C61.7385 9.17898 62.0623 8.7848 62.5311 8.48224C62.9998 8.17969 63.5282 8.02841 64.1163 8.02841C64.2271 8.02841 64.3656 8.03054 64.5318 8.0348C64.698 8.03906 64.8237 8.04545 64.9089 8.05398V9.58807C64.8578 9.57528 64.7406 9.55611 64.5574 9.53054C64.3784 9.50071 64.1887 9.4858 63.9885 9.4858C63.5112 9.4858 63.0851 9.58594 62.71 9.78622C62.3393 9.98224 62.0453 10.255 61.8279 10.6044C61.6149 10.9496 61.5083 11.3437 61.5083 11.7869V18H59.9998ZM70.5147 18.2045C69.5687 18.2045 68.7527 17.9957 68.0666 17.5781C67.3848 17.1562 66.8585 16.5682 66.4877 15.8139C66.1213 15.0554 65.938 14.1733 65.938 13.1676C65.938 12.1619 66.1213 11.2756 66.4877 10.5085C66.8585 9.73722 67.3741 9.13636 68.0346 8.70597C68.6994 8.27131 69.475 8.05398 70.3613 8.05398C70.8727 8.05398 71.3777 8.1392 71.8762 8.30966C72.3748 8.48011 72.8287 8.7571 73.2377 9.14062C73.6468 9.51989 73.9728 10.0227 74.2157 10.6491C74.4586 11.2756 74.5801 12.0469 74.5801 12.9631V13.6023H67.0119V12.2983H73.046C73.046 11.7443 72.9352 11.25 72.7136 10.8153C72.4963 10.3807 72.1852 10.0376 71.7804 9.78622C71.3798 9.5348 70.9068 9.40909 70.3613 9.40909C69.7605 9.40909 69.2406 9.55824 68.8017 9.85653C68.367 10.1506 68.0325 10.5341 67.7981 11.0071C67.5637 11.4801 67.4466 11.9872 67.4466 12.5284V13.3977C67.4466 14.1392 67.5744 14.7678 67.8301 15.2834C68.09 15.7947 68.4501 16.1847 68.9103 16.4531C69.3706 16.7173 69.9054 16.8494 70.5147 16.8494C70.911 16.8494 71.269 16.794 71.5886 16.6832C71.9125 16.5682 72.1916 16.3977 72.426 16.1719C72.6603 15.9418 72.8414 15.6562 72.9693 15.3153L74.4267 15.7244C74.2733 16.2188 74.0154 16.6534 73.6532 17.0284C73.291 17.3991 72.8436 17.6889 72.3109 17.8977C71.7782 18.1023 71.1795 18.2045 70.5147 18.2045ZM83.0623 13.9858V8.18182H84.5708V18H83.0623V16.3381H82.9601C82.7299 16.8366 82.372 17.2607 81.8862 17.6101C81.4004 17.9553 80.7868 18.1278 80.0453 18.1278C79.4316 18.1278 78.8862 17.9936 78.4089 17.7251C77.9316 17.4524 77.5566 17.0433 77.2839 16.4979C77.0112 15.9482 76.8748 15.2557 76.8748 14.4205V8.18182H78.3833V14.3182C78.3833 15.0341 78.5836 15.6051 78.9842 16.0312C79.389 16.4574 79.9047 16.6705 80.5311 16.6705C80.9061 16.6705 81.2875 16.5746 81.6752 16.3828C82.0673 16.1911 82.3954 15.897 82.6596 15.5007C82.9281 15.1044 83.0623 14.5994 83.0623 13.9858ZM87.3338 18V8.18182H88.7912V9.71591H88.919C89.1236 9.19176 89.4538 8.7848 89.9098 8.49503C90.3658 8.20099 90.9134 8.05398 91.5526 8.05398C92.2003 8.05398 92.7393 8.20099 93.1697 8.49503C93.6044 8.7848 93.9432 9.19176 94.1861 9.71591H94.2884C94.5398 9.20881 94.9169 8.80611 95.4197 8.50781C95.9226 8.20526 96.5256 8.05398 97.2287 8.05398C98.1065 8.05398 98.8246 8.32884 99.3828 8.87855C99.9411 9.42401 100.22 10.2741 100.22 11.429V18H98.7116V11.429C98.7116 10.7045 98.5135 10.1868 98.1172 9.87571C97.7209 9.56463 97.2543 9.40909 96.7173 9.40909C96.027 9.40909 95.4922 9.6179 95.1129 10.0355C94.7337 10.4489 94.544 10.973 94.544 11.608V18H93.0099V11.2756C93.0099 10.7173 92.8288 10.2678 92.4666 9.92685C92.1044 9.58168 91.6378 9.40909 91.0668 9.40909C90.6747 9.40909 90.3082 9.51349 89.9673 9.7223C89.6307 9.93111 89.358 10.2209 89.1491 10.5916C88.9446 10.9581 88.8423 11.3821 88.8423 11.8636V18H87.3338Z" fill="#3D3D3D"/>
<path d="M11.4128 13.0395C11.4131 13.139 11.3811 13.2362 11.3218 13.3164L6.09139 20.7998C6.00381 20.9252 5.86027 21.0001 5.70713 21.0001C5.55428 21.0001 5.41074 20.9252 5.32316 20.7998L0.0873227 13.307C-0.0480161 13.1177 -0.0237203 12.8578 0.144114 12.6967C0.312226 12.5357 0.572735 12.5224 0.756383 12.6653L5.70709 16.4215L10.6578 12.6682H10.6581C10.7332 12.61 10.8242 12.5763 10.9189 12.571H10.9491C11.2056 12.5735 11.4125 12.782 11.4128 13.0389L11.4128 13.0395Z" fill="#3D3D3D"/>
<path d="M10.9448 10.2726L6.10908 2.22716C6.02431 2.08618 5.87203 2 5.70758 2C5.54343 2 5.39085 2.08618 5.30637 2.22716L0.470384 10.2726C0.348043 10.4765 0.39777 10.7396 0.586229 10.8848L5.42142 14.6152C5.5901 14.7458 5.82545 14.7458 5.99414 14.6152L10.8293 10.8848C11.0175 10.7396 11.0675 10.4765 10.9449 10.2726H10.9448ZM10.1774 10.3483C10.1336 10.4452 10.0531 10.5209 9.95335 10.5588C9.8539 10.5964 9.74343 10.5927 9.64623 10.5489L5.85622 8.83073C5.76185 8.78807 5.65364 8.78807 5.55927 8.83073L1.76926 10.5469C1.67178 10.5927 1.56018 10.5978 1.45931 10.5605C1.35844 10.5235 1.27679 10.4475 1.23243 10.3494C1.18807 10.2514 1.18468 10.1398 1.22339 10.0395C1.2621 9.93917 1.33923 9.85865 1.43783 9.8157L5.54176 7.95513C5.648 7.90653 5.77005 7.90653 5.87629 7.95513L9.98021 9.8157C10.1814 9.90809 10.2698 10.1463 10.1774 10.3475L10.1774 10.3483Z" fill="#3D3D3D"/>
</svg>
