<svg width="48" height="17" viewBox="0 0 48 17" fill="none" xmlns="http://www.w3.org/2000/svg">
<path d="M21.233 14V3.81818H27.3778V4.91193H22.4659V8.35227H27.0597V9.44602H22.4659V12.9062H27.4574V14H21.233ZM29.0433 4.91193V3.81818H36.6797V4.91193H33.478V14H32.245V4.91193H29.0433ZM38.5826 14V3.81818H39.8155V8.35227H45.2445V3.81818H46.4775V14H45.2445V9.44602H39.8155V14H38.5826Z" fill="#6C6C6C"/>
<path d="M9.01004 10.1347C9.01026 10.208 8.98506 10.2796 8.93821 10.3388L4.80897 15.8528C4.73982 15.9452 4.62651 16.0004 4.50561 16.0004C4.38493 16.0004 4.27161 15.9452 4.20247 15.8528L0.0689386 10.3318C-0.0379072 10.1923 -0.0187265 10.0008 0.113774 9.88215C0.246493 9.76348 0.452156 9.75369 0.597142 9.85904L4.50557 12.6267L8.414 9.86112H8.41422C8.47356 9.81823 8.54538 9.79346 8.62011 9.7895H8.64398C8.84652 9.79137 9.00979 9.94501 9.01002 10.1343L9.01004 10.1347Z" fill="#6C6C6C"/>
<path d="M8.64032 8.09553L4.82269 2.16738C4.75577 2.0635 4.63554 2 4.50572 2C4.37612 2 4.25567 2.0635 4.18897 2.16738L0.371111 8.09553C0.274527 8.24584 0.313785 8.43967 0.462567 8.54668L4.2798 11.2954C4.41297 11.3916 4.59878 11.3916 4.73195 11.2954L8.54918 8.54668C8.69774 8.43967 8.73722 8.24584 8.64041 8.09553H8.64032ZM8.03451 8.15133C7.99994 8.22273 7.93637 8.27853 7.85763 8.30643C7.77911 8.33412 7.6919 8.33141 7.61516 8.29915L4.62307 7.03314C4.54856 7.00171 4.46313 7.00171 4.38863 7.03314L1.39654 8.29771C1.31958 8.33143 1.23147 8.33518 1.15184 8.3077C1.07221 8.28043 1.00774 8.22442 0.972722 8.15218C0.937701 8.07994 0.935024 7.99771 0.965584 7.92379C0.996143 7.84988 1.05704 7.79055 1.13488 7.75891L4.37481 6.38797C4.45868 6.35216 4.55503 6.35216 4.63891 6.38797L7.87883 7.75891C8.03764 7.82698 8.10746 8.00249 8.03453 8.15072L8.03451 8.15133Z" fill="#6C6C6C"/>
</svg>
