<svg width="132" height="31" viewBox="0 0 132 31" fill="none" xmlns="http://www.w3.org/2000/svg">
<path d="M29.3355 7.39333L15.2726 24.7602L15.27 24.7573V17.3111L25.1018 3.9707L29.3355 7.39333Z" fill="#2C2C2C"/>
<path d="M15.2696 17.3099V0C7.71044 7.28021 0 5.93143 0 5.93143C0 24.9339 15.2696 31 15.2696 31V24.7565L7.25229 17.2702L10.9699 13.2948L15.2696 17.3099Z" fill="#2C2C2C"/>
<path d="M39.2554 10.3923H41.1722C41.6691 10.3923 42.0951 10.5687 42.4501 10.9216C42.805 11.2744 42.9825 11.6979 42.9825 12.1919V24.4718H39.2554V10.3923ZM39.2554 6.26367H41.1722C41.6691 6.26367 42.0951 6.44011 42.4501 6.79298C42.805 7.14585 42.9825 7.5693 42.9825 8.06332V9.17486H39.2554V6.26367Z" fill="#2C2C2C"/>
<path d="M56.8582 24.4718H53.1843V16.2146V15.4736C53.1843 14.6267 52.9181 14.0092 52.3856 13.621C51.8887 13.2329 51.3207 13.0388 50.6818 13.0388C50.0428 13.0388 49.4749 13.2329 48.9779 13.621C48.481 14.0092 48.2325 14.6267 48.2325 15.4736V24.4718H44.5053V16.2146C44.5053 13.8151 45.1265 12.2096 46.3689 11.398C47.6468 10.5863 49.0489 10.1453 50.5753 10.0747C51.3917 10.0747 52.1904 10.1629 52.9713 10.3393C53.7522 10.5158 54.4622 10.8686 55.1011 11.398C55.6336 10.9392 56.2548 10.6216 56.9647 10.4452C57.7101 10.2335 58.4733 10.11 59.2542 10.0747C60.8161 10.0747 62.2537 10.4805 63.5671 11.2921C64.8805 12.1037 65.5372 13.7445 65.5372 16.2146V24.4718H63.6736C63.1411 24.4718 62.6974 24.313 62.3424 23.9955C62.023 23.6426 61.8632 23.2015 61.8632 22.6722V15.4736C61.8632 14.6267 61.597 14.0092 61.0646 13.621C60.5676 13.2329 59.9997 13.0388 59.3607 13.0388C58.7218 13.0388 58.1361 13.2329 57.6036 13.621C57.1067 14.0092 56.8582 14.6267 56.8582 15.4736V16.2146V24.4718Z" fill="#2C2C2C"/>
<path d="M80.2647 24.4718H76.5908V16.2146V15.4736C76.5908 14.6267 76.3246 14.0092 75.7922 13.621C75.2952 13.2329 74.7273 13.0388 74.0883 13.0388C73.4494 13.0388 72.8814 13.2329 72.3845 13.621C71.8875 14.0092 71.639 14.6267 71.639 15.4736V24.4718H67.9119V16.2146C67.9119 13.8151 68.5331 12.2096 69.7755 11.398C71.0533 10.5863 72.4555 10.1453 73.9818 10.0747C74.7983 10.0747 75.5969 10.1629 76.3779 10.3393C77.1588 10.5158 77.8687 10.8686 78.5077 11.398C79.0401 10.9392 79.6613 10.6216 80.3712 10.4452C81.1167 10.2335 81.8799 10.11 82.6608 10.0747C84.2226 10.0747 85.6603 10.4805 86.9736 11.2921C88.287 12.1037 88.9437 13.7445 88.9437 16.2146V24.4718H87.0801C86.5477 24.4718 86.104 24.313 85.749 23.9955C85.4295 23.6426 85.2698 23.2015 85.2698 22.6722V15.4736C85.2698 14.6267 85.0036 14.0092 84.4711 13.621C83.9742 13.2329 83.4062 13.0388 82.7673 13.0388C82.1283 13.0388 81.5426 13.2329 81.0102 13.621C80.5132 14.0092 80.2647 14.6267 80.2647 15.4736V16.2146V24.4718Z" fill="#2C2C2C"/>
<path d="M103.671 10.3923V18.6495C103.671 21.1548 103.015 22.7957 101.701 23.572C100.388 24.3483 98.9502 24.7365 97.3884 24.7365C95.862 24.6659 94.4599 24.2425 93.182 23.4662C91.9396 22.6898 91.3184 21.0843 91.3184 18.6495V10.3923H95.0456V19.3905C95.0456 20.2374 95.2941 20.8549 95.791 21.2431C96.288 21.6312 96.8559 21.8253 97.4949 21.8253C98.1338 21.8253 98.7018 21.6312 99.1987 21.2431C99.7312 20.8549 99.9974 20.2374 99.9974 19.3905V12.1919C99.9974 11.6979 100.157 11.2744 100.477 10.9216C100.832 10.5687 101.275 10.3923 101.808 10.3923H103.671Z" fill="#2C2C2C"/>
<path d="M117.973 24.4718H116.109C115.577 24.4718 115.133 24.313 114.778 23.9955C114.459 23.6426 114.299 23.2015 114.299 22.6722V15.4736C114.299 14.6267 114.033 14.0092 113.5 13.621C113.003 13.2329 112.435 13.0388 111.796 13.0388C111.158 13.0388 110.59 13.2329 110.093 13.621C109.596 14.0092 109.347 14.6267 109.347 15.4736V24.4718H105.62V16.2146C105.62 13.8151 106.241 12.2096 107.484 11.398C108.762 10.5863 110.164 10.1453 111.69 10.0747C113.252 10.0747 114.689 10.4805 116.003 11.2921C117.316 12.1037 117.973 13.7445 117.973 16.2146V24.4718Z" fill="#2C2C2C"/>
<path d="M128.121 17.3791C127.624 17.6261 126.932 17.8555 126.045 18.0672C125.228 18.2437 124.82 18.3319 124.82 18.3319C124.181 18.5083 123.72 18.7377 123.436 19.02C123.187 19.4081 123.063 19.7963 123.063 20.1845C123.063 20.7138 123.223 21.1372 123.542 21.4548C123.862 21.7371 124.323 21.8782 124.927 21.8782C125.921 21.8782 126.702 21.5959 127.27 21.0313C127.837 20.4667 128.121 19.6904 128.121 18.7024V17.3791ZM128.973 23.8896C128.228 24.2778 127.429 24.5071 126.577 24.5777C125.761 24.6836 125.033 24.7365 124.394 24.7365C123.116 24.7365 121.998 24.4013 121.04 23.7308C120.081 23.0251 119.602 21.8782 119.602 20.2903C119.602 18.8083 120.028 17.7496 120.88 17.1145C121.768 16.4793 122.886 16.0559 124.235 15.8441C124.412 15.8441 124.625 15.8265 124.873 15.7912C125.122 15.7206 125.406 15.6677 125.725 15.6324C127.287 15.4207 128.068 14.962 128.068 14.2562C128.068 13.7269 127.784 13.3917 127.216 13.2505C126.684 13.0741 126.187 12.9859 125.725 12.9859C125.228 12.9859 124.785 13.0564 124.394 13.1976C124.004 13.3387 123.72 13.6034 123.542 13.9916H119.975C120.117 12.8977 120.614 11.9978 121.466 11.2921C122.424 10.4805 123.791 10.0747 125.566 10.0747C127.553 10.0747 129.044 10.4099 130.038 11.0804C131.068 11.7861 131.582 12.7741 131.582 14.0445V18.8612C131.582 20.2727 131.316 21.3842 130.784 22.1958C130.287 22.9721 129.683 23.5367 128.973 23.8896Z" fill="#2C2C2C"/>
</svg>
