<svg width="7" height="10" viewBox="0 0 7 10" fill="none" xmlns="http://www.w3.org/2000/svg">
<path d="M0.517785 4.47371H6.48272C6.92801 4.47371 7.1646 3.93662 6.8686 3.597L3.88639 0.177021C3.83802 0.121367 3.77861 0.07681 3.71209 0.0462945C3.64557 0.0157791 3.57346 0 3.50051 0C3.42756 0 3.35545 0.0157791 3.28893 0.0462945C3.22241 0.07681 3.163 0.121367 3.11462 0.177021L0.131384 3.597C-0.164616 3.93662 0.0719774 4.47371 0.517785 4.47371ZM3.11411 9.82298C3.16248 9.87863 3.22189 9.92319 3.28841 9.95371C3.35493 9.98422 3.42705 10 3.49999 10C3.57294 10 3.64505 9.98422 3.71157 9.95371C3.77809 9.92319 3.8375 9.87863 3.88588 9.82298L6.86808 6.40301C7.1646 6.0639 6.92801 5.52682 6.4822 5.52682H0.517785C0.072494 5.52682 -0.164099 6.0639 0.1319 6.40353L3.11411 9.82298Z" fill="#2C2C2C"/>
</svg>
